<?xml version="1.0" standalone="no"?>
<!DOCTYPE svg PUBLIC "-//W3C//DTD SVG 20010904//EN"
 "http://www.w3.org/TR/2001/REC-SVG-20010904/DTD/svg10.dtd">
<svg version="1.0" xmlns="http://www.w3.org/2000/svg"
 width="309.000000pt" height="302.000000pt" viewBox="0 0 309.000000 302.000000"
 preserveAspectRatio="xMidYMid meet">

<g transform="translate(0.000000,302.000000) scale(0.100000,-0.100000)"
fill="#000000" stroke="none">
<path d="M1909 2911 c-14 -11 -59 -83 -98 -161 l-72 -141 -139 -69 c-142 -71
-180 -102 -180 -149 0 -47 29 -70 177 -144 l145 -72 74 -147 c74 -149 98 -178
144 -178 42 1 60 24 139 177 l76 148 152 78 c137 71 153 81 163 112 21 63 -2
86 -165 168 l-145 72 -77 147 c-42 82 -82 153 -89 158 -26 22 -78 23 -105 1z
m93 -355 c36 -72 39 -75 117 -117 44 -24 77 -47 75 -51 -3 -5 -36 -24 -72 -42
-79 -40 -92 -53 -125 -127 -14 -31 -29 -59 -34 -62 -6 -4 -27 28 -49 71 -38
75 -41 78 -116 117 -43 22 -78 43 -78 46 0 3 24 18 53 34 89 48 107 65 142
136 20 38 39 69 43 69 4 0 24 -33 44 -74z"/>
<path d="M1095 2106 c-17 -7 -35 -19 -42 -27 -6 -8 -72 -137 -147 -286 -74
-149 -139 -274 -145 -277 -12 -8 -214 -39 -484 -75 -146 -20 -179 -38 -202
-109 -19 -61 -4 -81 232 -315 l227 -225 -18 -113 c-30 -186 -34 -209 -56 -334
-27 -145 -27 -194 -4 -234 19 -33 68 -61 104 -61 12 0 147 65 301 145 154 80
283 145 287 145 6 0 339 -171 528 -271 51 -28 105 -20 145 20 43 43 45 70 16
241 -14 85 -38 224 -52 309 l-26 155 225 218 c241 234 254 252 235 322 -19 70
-66 90 -269 116 -47 6 -112 15 -145 20 -33 5 -110 17 -171 26 l-110 16 -142
284 c-119 238 -147 288 -175 304 -37 23 -69 25 -112 6z m317 -756 c2 0 69 -9
148 -21 80 -11 172 -24 205 -29 152 -21 209 -31 214 -36 3 -4 -88 -98 -203
-210 -177 -172 -208 -206 -203 -226 22 -93 92 -537 85 -543 -3 -3 -66 26 -139
65 -74 38 -188 98 -254 132 l-121 61 -253 -132 c-139 -73 -256 -129 -259 -126
-3 3 3 61 15 128 12 67 34 193 49 281 l28 159 -206 203 c-113 112 -202 206
-198 209 8 5 78 16 215 35 269 36 350 52 359 68 6 9 61 121 123 247 62 127
117 236 124 243 8 10 40 -45 139 -247 71 -144 130 -261 132 -261z"/>
<path d="M2569 2013 c-8 -9 -33 -61 -55 -117 l-42 -101 -73 -32 c-168 -73
-170 -74 -167 -95 2 -15 30 -31 113 -65 60 -24 115 -49 121 -54 6 -5 30 -58
54 -118 41 -105 62 -133 83 -112 6 6 31 60 56 122 l46 111 115 47 c94 37 116
50 118 68 3 24 -2 27 -148 89 -36 15 -72 34 -81 43 -9 9 -33 59 -54 111 -49
125 -59 137 -86 103z"/>
</g>
</svg>
